<svg xmlns="http://www.w3.org/2000/svg" xmlns:xlink="http://www.w3.org/1999/xlink">
   <symbol id="instagram" viewBox="0 0 26 25.994"><path d="M13.005 6.332a6.665 6.665 0 106.665 6.665 6.654 6.654 0 00-6.665-6.665zm0 11a4.333 4.333 0 114.333-4.333 4.341 4.341 0 01-4.333 4.331zm8.489-11.27a1.554 1.554 0 11-1.554-1.554 1.551 1.551 0 011.554 1.554zm4.411 1.575a7.693 7.693 0 00-2.1-5.447 7.743 7.743 0 00-5.447-2.1c-2.146-.122-8.579-.122-10.725 0a7.732 7.732 0 00-5.442 2.095 7.718 7.718 0 00-2.1 5.447c-.122 2.146-.122 8.579 0 10.725a7.693 7.693 0 002.1 5.447 7.753 7.753 0 005.447 2.1c2.146.122 8.579.122 10.725 0a7.693 7.693 0 005.447-2.1 7.743 7.743 0 002.1-5.447c.122-2.146.122-8.573 0-10.719zm-2.769 13.025a4.387 4.387 0 01-2.471 2.471c-1.711.679-5.771.522-7.662.522s-5.957.151-7.662-.522a4.387 4.387 0 01-2.472-2.471c-.679-1.711-.522-5.771-.522-7.662s-.151-5.957.522-7.662A4.387 4.387 0 015.34 2.862c1.711-.677 5.772-.52 7.665-.52s5.957-.151 7.662.522a4.387 4.387 0 012.471 2.471c.679 1.711.522 5.771.522 7.662s.154 5.957-.524 7.665z"/></symbol>
   <symbol id="katalog" viewBox="0 0 20 20"><path d="M0 0h3.6v3.6H0zm8.2 0h3.6v3.6H8.2zm8.2 0H20v3.6h-3.6zM0 8.2h3.6v3.6H0zm8.2 0h3.6v3.6H8.2zm8.2 0H20v3.6h-3.6zM0 16.4h3.6V20H0zm8.2 0h3.6V20H8.2zm8.2 0H20V20h-3.6z" data-name="katalog"/></symbol>

   <symbol id="mail" viewBox="0 0 20.785 16.4"><g stroke-linecap="round" stroke-linejoin="round" stroke-width="2"><path d="M3.193 1h14.4a1.805 1.805 0 011.8 1.8v10.8a1.805 1.805 0 01-1.8 1.8h-14.4a1.805 1.805 0 01-1.8-1.8V2.8a1.805 1.805 0 011.8-1.8z" data-name="&#x41A;&#x43E;&#x43D;&#x442;&#x443;&#x440; 25"/><path d="M19.393 2.8l-9 6.3-9-6.3" data-name="&#x41A;&#x43E;&#x43D;&#x442;&#x443;&#x440; 26"/></g></symbol>

   <symbol id="phone" viewBox="0 0 20.001 20.002"><path stroke-linecap="round" stroke-linejoin="round" stroke-width="2" d="M19 14.476v2.71a1.809 1.809 0 01-1.973 1.806 17.933 17.933 0 01-7.81-2.773 17.631 17.631 0 01-5.43-5.419 17.852 17.852 0 01-2.779-7.831A1.808 1.808 0 012.809 1h2.715a1.809 1.809 0 011.809 1.554 11.579 11.579 0 00.634 2.538A1.8 1.8 0 017.561 7l-1.15 1.145a14.466 14.466 0 005.43 5.419l1.149-1.147a1.813 1.813 0 011.91-.406 11.639 11.639 0 002.543.632A1.808 1.808 0 0119 14.477z"/></symbol>

   <symbol id="telegram" viewBox="0 0 26 21.805"><path d="M25.926 1.985l-3.927 18.504c-.3 1.306-1.068 1.631-2.165 1.016l-5.975-4.406-2.884 2.773a1.5 1.5 0 01-1.2.586l.424-6.086L21.283 4.359c.482-.43-.1-.667-.749-.238l-13.7 8.625L.939 10.9c-1.283-.4-1.306-1.283.267-1.9L24.272.116c1.068-.4 2 .238 1.654 1.869z"/></symbol>

   <symbol id="user" viewBox="0 0 16.256 18.063"><g><path d="M16.256 18.062H14.45v-2.709a2.709 2.709 0 00-2.709-2.709H4.516a2.709 2.709 0 00-2.709 2.709v2.709H0v-2.709a4.516 4.516 0 014.516-4.516h7.225a4.516 4.516 0 014.516 4.516z" data-name="Path 19"/><path d="M8.129 9.031a4.516 4.516 0 114.516-4.516 4.521 4.521 0 01-4.516 4.516zm0-7.225a2.709 2.709 0 102.709 2.709 2.712 2.712 0 00-2.709-2.709z" data-name="Path 20"/></g></symbol>
</svg>